<svg viewBox="0 0 800 160" xmlns="http://www.w3.org/2000/svg" width="800" height="160">
  <rect width="800" height="160" fill="#0f0f0f"/>
  <rect x="0" y="0" width="800" height="1" fill="#1c1917" opacity="0.8"/>
  <g transform="translate(40, 44)">
    <path d="M 4 12 L 8 52 L 44 52 L 48 12 Z" fill="none" stroke="#BA7517" stroke-width="2" stroke-linejoin="round"/>
    <path d="M 48 22 Q 64 22 64 32 Q 64 42 48 42" fill="none" stroke="#BA7517" stroke-width="2" stroke-linecap="round"/>
    <path d="M 16 6 Q 20 0 16 -6" fill="none" stroke="#57534e" stroke-width="1.5" stroke-linecap="round"/>
    <path d="M 26 8 Q 30 2 26 -4" fill="none" stroke="#57534e" stroke-width="1.5" stroke-linecap="round"/>
    <path d="M 36 6 Q 40 0 36 -6" fill="none" stroke="#57534e" stroke-width="1.5" stroke-linecap="round"/>
    <path d="M 0 56 Q 26 62 52 56" fill="none" stroke="#BA7517" stroke-width="1.5" stroke-linecap="round"/>
  </g>
  <text x="120" y="85" font-family="-apple-system, BlinkMacSystemFont, 'Segoe UI', Helvetica, Arial, sans-serif" font-size="52" font-weight="300" letter-spacing="6" fill="#f5f5f4">espresso</text>
  <text x="122" y="112" font-family="-apple-system, BlinkMacSystemFont, 'Segoe UI', Helvetica, Arial, sans-serif" font-size="15" font-weight="400" letter-spacing="1" fill="#78716c">Claude without the noise.</text>
  <rect x="530" y="32" width="0.75" height="96" fill="#292524"/>
  <text x="565" y="78" font-family="-apple-system, BlinkMacSystemFont, 'Segoe UI', Helvetica, Arial, sans-serif" font-size="42" font-weight="300" fill="#BA7517" letter-spacing="-1">−58%</text>
  <text x="565" y="103" font-family="-apple-system, BlinkMacSystemFont, 'Segoe UI', Helvetica, Arial, sans-serif" font-size="12" font-weight="400" fill="#57534e" letter-spacing="0.5">avg output tokens</text>
  <text x="565" y="120" font-family="-apple-system, BlinkMacSystemFont, 'Segoe UI', Helvetica, Arial, sans-serif" font-size="12" font-weight="400" fill="#57534e" letter-spacing="0.5">reduction</text>
  <rect x="0" y="159" width="800" height="1" fill="#1c1917" opacity="0.8"/>
</svg>